<svg width="288" height="288" viewBox="0 0 288 288" fill="none" xmlns="http://www.w3.org/2000/svg">
<path d="M88.4 248.32C87.84 249.547 87.0133 250.56 85.92 251.36C84.8267 252.16 83.64 252.56 82.36 252.56C81.08 252.56 80.0267 252.187 79.2 251.44C78.4 250.693 78 249.587 78 248.12C78 246.653 78.6533 245.533 79.96 244.76C81.2667 243.96 82.8 243.56 84.56 243.56H100.44C100.52 243.933 100.56 244.293 100.56 244.64C100.56 245.547 100.267 246.387 99.68 247.16C99.0933 247.933 98.2 248.32 97 248.32C96.9467 248.32 96.9067 248.32 96.88 248.32H88.4ZM83.2 248.32C82.2133 248.32 81.72 248.667 81.72 249.36C81.72 249.92 82.1467 250.2 83 250.2C83.4 250.2 83.8667 250.027 84.4 249.68C84.96 249.333 85.4267 248.88 85.8 248.32H83.2ZM91.48 266.32C90.8133 271.547 88.4533 274.16 84.4 274.16C82.96 274.16 81.8 273.72 80.92 272.84C80.0667 271.96 79.64 270.853 79.64 269.52C79.64 266.4 82.0133 263.733 86.76 261.52L88.16 250.88C89.2533 250.187 90.52 249.84 91.96 249.84C92.6267 249.84 93.2667 249.907 93.88 250.04L91.48 266.32ZM86.32 264.92C83.84 266.36 82.6 267.747 82.6 269.08C82.6 270.04 83.0667 270.52 84 270.52C85.0667 270.52 85.7333 269.493 86 267.44L86.32 264.92ZM104.641 257.32H119.921L119.561 260.76H104.281L104.641 257.32ZM146.79 253.84C147.59 252.64 147.99 251.52 147.99 250.48C147.99 249.44 147.697 248.613 147.11 248C146.524 247.387 145.75 247.08 144.79 247.08C143.83 247.08 143.057 247.32 142.47 247.8C141.884 248.253 141.59 248.987 141.59 250C141.59 250.987 142.284 252.773 143.67 255.36C145.057 257.947 145.937 259.613 146.31 260.36C147.324 262.387 147.83 264.347 147.83 266.24C147.83 268.613 146.964 270.547 145.23 272.04C143.524 273.507 141.497 274.24 139.15 274.24C136.83 274.24 135.004 273.52 133.67 272.08C132.337 270.613 131.67 268.907 131.67 266.96C131.67 263.36 133.897 260.387 138.35 258.04C136.537 254.467 135.63 251.973 135.63 250.56C135.63 248.587 136.417 246.92 137.99 245.56C139.59 244.173 141.537 243.48 143.83 243.48C146.15 243.48 147.924 244.067 149.15 245.24C150.377 246.413 150.99 247.907 150.99 249.72C150.99 250.92 150.59 252.293 149.79 253.84H146.79ZM136.31 269.44C137.03 270.213 137.897 270.6 138.91 270.6C139.95 270.6 140.75 270.307 141.31 269.72C141.897 269.107 142.19 268.213 142.19 267.04C142.19 265.973 141.777 264.667 140.95 263.12C140.844 262.907 140.644 262.52 140.35 261.96C140.057 261.373 139.844 260.96 139.71 260.72C136.724 262.267 135.23 264.213 135.23 266.56C135.23 267.76 135.59 268.72 136.31 269.44ZM161.842 269.44L162.802 260.6C162.802 259.88 162.615 259.28 162.242 258.8C161.868 258.32 161.268 258.08 160.442 258.08C159.615 258.08 158.908 258.413 158.322 259.08C157.762 259.72 157.348 260.573 157.082 261.64C156.895 263.16 156.615 265.387 156.242 268.32C155.868 271.227 155.628 273.12 155.522 274H150.202C152.122 257.653 153.282 247.613 153.682 243.88C154.242 243.667 155.002 243.56 155.962 243.56C158.042 243.56 159.082 244.173 159.082 245.4V245.64C158.628 249.827 158.148 253.507 157.642 256.68C159.055 255.4 160.655 254.76 162.442 254.76C164.228 254.76 165.642 255.213 166.682 256.12C167.722 257.027 168.242 258.173 168.242 259.56C168.242 259.933 168.162 260.627 168.002 261.64C167.388 265.64 167.082 267.987 167.082 268.68C167.082 269.933 167.495 270.56 168.322 270.56C169.015 270.56 169.748 270.107 170.522 269.2C171.322 268.267 171.962 266.84 172.442 264.92C173.348 265.88 173.895 266.64 174.082 267.2C172.695 271.84 170.242 274.16 166.722 274.16C165.068 274.16 163.842 273.653 163.042 272.64C162.242 271.627 161.842 270.56 161.842 269.44ZM181.284 254.76C183.738 254.76 185.778 255.547 187.404 257.12C189.058 258.693 189.884 260.613 189.884 262.88C189.884 266.32 188.871 269.08 186.844 271.16C184.844 273.213 182.418 274.24 179.564 274.24C176.711 274.24 174.444 273.427 172.764 271.8C171.111 270.173 170.284 268.16 170.284 265.76C170.284 262.4 171.311 259.733 173.364 257.76C175.444 255.76 178.084 254.76 181.284 254.76ZM180.484 258C179.231 258 178.178 258.72 177.324 260.16C176.471 261.6 176.004 263.413 175.924 265.6C175.924 267.147 176.231 268.427 176.844 269.44C177.484 270.453 178.444 270.96 179.724 270.96C181.004 270.96 182.071 270.253 182.924 268.84C183.804 267.427 184.244 265.813 184.244 264C184.244 262.187 183.938 260.747 183.324 259.68C182.711 258.56 181.764 258 180.484 258ZM199.026 265.04C200.679 264.693 201.906 264.027 202.706 263.04C203.532 262.053 203.946 261.107 203.946 260.2C203.946 259.267 203.692 258.64 203.186 258.32C202.706 257.973 202.172 257.8 201.586 257.8C200.332 257.8 199.226 258.507 198.266 259.92C197.332 261.307 196.866 262.973 196.866 264.92C196.866 266.84 197.319 268.28 198.226 269.24C199.159 270.173 200.306 270.64 201.666 270.64C203.666 270.64 205.586 269.947 207.426 268.56C209.266 267.173 210.759 265.36 211.906 263.12C212.492 263.68 213.026 264.373 213.506 265.2C212.626 267.2 211.066 269.16 208.826 271.08C207.706 272.013 206.372 272.773 204.826 273.36C203.306 273.947 201.732 274.24 200.106 274.24C197.439 274.24 195.332 273.427 193.786 271.8C192.132 270.04 191.306 267.787 191.306 265.04C191.306 262.293 192.332 259.893 194.386 257.84C196.466 255.787 198.946 254.76 201.826 254.76C203.879 254.76 205.546 255.213 206.826 256.12C208.106 257 208.759 258.2 208.786 259.72C208.786 261.773 207.959 263.44 206.306 264.72C204.679 266 202.439 266.893 199.586 267.4L199.026 265.04Z" fill="#F05323"/>
<path d="M82.2665 187.402C82.1356 187.36 82.0134 187.321 81.9 187.285V147.359C97.2932 147.035 106.551 141.732 115.568 136.567L115.596 136.552C124.831 131.262 133.815 126.125 149.3 126.125C158.546 126.125 172.919 127.445 184.923 132.004C196.968 136.578 206.1 144.173 206.1 156.5C206.1 168.897 196.184 179.137 181.753 186.37C167.405 193.561 149.088 197.5 133.4 197.5C123.044 197.5 109.944 194.884 99.3515 192.232C94.0727 190.911 89.4487 189.59 86.145 188.598C84.4935 188.103 83.1729 187.69 82.2665 187.402ZM124.3 80.6407V40.7149C124.413 40.6786 124.536 40.6395 124.667 40.5979C125.573 40.3096 126.894 39.897 128.545 39.4016C131.849 38.4105 136.473 37.0889 141.751 35.7676C152.344 33.1165 165.444 30.5 175.8 30.5C191.488 30.5 209.805 34.439 224.153 41.6301C238.584 48.8626 248.5 59.1025 248.5 71.5C248.5 83.8274 239.368 91.4219 227.323 95.9962C215.319 100.555 200.946 101.875 191.7 101.875C176.215 101.875 167.231 96.7382 157.996 91.4484L157.968 91.4326C148.951 86.268 139.693 80.9652 124.3 80.6407ZM101.6 80.625C90.7386 80.625 81.9 71.7706 81.9 60.875C81.9 49.9794 90.7386 41.125 101.6 41.125H110.7V80.625H101.6ZM59.2 186.875C48.3386 186.875 39.5 178.021 39.5 167.125C39.5 156.229 48.3386 147.375 59.2 147.375H68.3V186.875H59.2Z" fill="#F05323" stroke="black" stroke-width="3"/>
</svg>
