<svg width="212" height="170" viewBox="0 0 212 170" fill="none" xmlns="http://www.w3.org/2000/svg">
<path d="M137.8 0C116.699 0 84.8 10.625 84.8 10.625V53.125C100.7 53.125 109.975 58.4375 119.25 63.75C128.525 69.0625 137.8 74.375 153.7 74.375C172.383 74.375 212 69.0625 212 42.5C212 15.9375 169.6 0 137.8 0ZM42.4 31.875C42.4 43.5957 51.9069 53.125 63.6 53.125H74.2V10.625H63.6C51.9069 10.625 42.4 20.1543 42.4 31.875ZM95.4 170C127.2 170 169.6 154.062 169.6 127.5C169.6 100.938 129.983 95.625 111.3 95.625C95.4 95.625 86.125 100.938 76.85 106.25C67.575 111.562 58.3 116.875 42.4 116.875V159.375C42.4 159.375 74.2994 170 95.4 170ZM0 138.125C0 149.846 9.50688 159.375 21.2 159.375H31.8V116.875H21.2C9.50688 116.875 0 126.404 0 138.125Z" fill="white"/>
</svg>
